<!-- Imagen conceptual / proyecto en desarrollo · generada por scripts/generate-art.mjs -->
<svg xmlns="http://www.w3.org/2000/svg" viewBox="0 0 1200 800" width="1200" height="800">
<defs>
<pattern id="minor" width="20" height="20" patternUnits="userSpaceOnUse"><path d="M20 0H0V20" fill="none" stroke="#9db9ff" stroke-opacity="0.07"/></pattern>
<pattern id="major" width="100" height="100" patternUnits="userSpaceOnUse"><rect width="100" height="100" fill="url(#minor)"/><path d="M100 0H0V100" fill="none" stroke="#9db9ff" stroke-opacity="0.14"/></pattern>
<marker id="arrow" viewBox="0 0 10 10" refX="5" refY="5" markerWidth="7" markerHeight="7" orient="auto-start-reverse"><path d="M0 0L10 5L0 10Z" fill="#9db9ff"/></marker>
</defs>
<rect width="1200" height="800" fill="#0a1c40"/>
<rect width="1200" height="800" fill="url(#major)"/>
<g fill="none" stroke="#9db9ff" stroke-opacity="0.55" stroke-width="1.5"><path d="M24 46V24H46"/><path d="M1176 46V24H1154"/><path d="M24 754V776H46"/><path d="M1176 754V776H1154"/></g>
<rect x="180" y="220" width="840" height="360" fill="#9db9ff" fill-opacity="0.08"/>
<g fill="none" stroke="#e2eaff" stroke-width="2" stroke-opacity="0.85">
<rect x="140" y="180" width="920" height="440" stroke-opacity="0.45"/>
<rect x="180" y="220" width="840" height="360" stroke-width="3"/>
<path d="M240 250H960M240 238V262M960 238V262" stroke-opacity="0.35"/><rect x="150" y="236" width="22" height="28"/><path d="M240 310H960M240 298V322M960 298V322" stroke-opacity="0.35"/><rect x="150" y="296" width="22" height="28"/><path d="M240 370H960M240 358V382M960 358V382" stroke-opacity="0.35"/><rect x="150" y="356" width="22" height="28"/><path d="M240 430H960M240 418V442M960 418V442" stroke-opacity="0.35"/><rect x="150" y="416" width="22" height="28"/><path d="M240 490H960M240 478V502M960 478V502" stroke-opacity="0.35"/><rect x="150" y="476" width="22" height="28"/><path d="M240 550H960M240 538V562M960 538V562" stroke-opacity="0.35"/><rect x="150" y="536" width="22" height="28"/>
<path d="M900 218a14 14 0 0 1 28 0M940 218a14 14 0 0 1 28 0"/>
</g>
<g fill="#9db9ff" fill-opacity="0.55"><circle cx="194" cy="280" r="3.2"/><circle cx="210" cy="280" r="3.2"/><circle cx="226" cy="280" r="3.2"/><circle cx="242" cy="280" r="3.2"/><circle cx="258" cy="280" r="3.2"/><circle cx="274" cy="280" r="3.2"/><circle cx="290" cy="280" r="3.2"/><circle cx="306" cy="280" r="3.2"/><circle cx="322" cy="280" r="3.2"/><circle cx="338" cy="280" r="3.2"/><circle cx="354" cy="280" r="3.2"/><circle cx="370" cy="280" r="3.2"/><circle cx="386" cy="280" r="3.2"/><circle cx="402" cy="280" r="3.2"/><circle cx="418" cy="280" r="3.2"/><circle cx="434" cy="280" r="3.2"/><circle cx="450" cy="280" r="3.2"/><circle cx="466" cy="280" r="3.2"/><circle cx="482" cy="280" r="3.2"/><circle cx="498" cy="280" r="3.2"/><circle cx="514" cy="280" r="3.2"/><circle cx="530" cy="280" r="3.2"/><circle cx="546" cy="280" r="3.2"/><circle cx="562" cy="280" r="3.2"/><circle cx="578" cy="280" r="3.2"/><circle cx="594" cy="280" r="3.2"/><circle cx="610" cy="280" r="3.2"/><circle cx="626" cy="280" r="3.2"/><circle cx="642" cy="280" r="3.2"/><circle cx="658" cy="280" r="3.2"/><circle cx="674" cy="280" r="3.2"/><circle cx="690" cy="280" r="3.2"/><circle cx="706" cy="280" r="3.2"/><circle cx="722" cy="280" r="3.2"/><circle cx="738" cy="280" r="3.2"/><circle cx="754" cy="280" r="3.2"/><circle cx="770" cy="280" r="3.2"/><circle cx="786" cy="280" r="3.2"/><circle cx="802" cy="280" r="3.2"/><circle cx="818" cy="280" r="3.2"/><circle cx="834" cy="280" r="3.2"/><circle cx="850" cy="280" r="3.2"/><circle cx="866" cy="280" r="3.2"/><circle cx="882" cy="280" r="3.2"/><circle cx="898" cy="280" r="3.2"/><circle cx="914" cy="280" r="3.2"/><circle cx="930" cy="280" r="3.2"/><circle cx="946" cy="280" r="3.2"/><circle cx="962" cy="280" r="3.2"/><circle cx="978" cy="280" r="3.2"/><circle cx="994" cy="280" r="3.2"/><circle cx="1010" cy="280" r="3.2"/></g><g fill="#9db9ff" fill-opacity="0.55"><circle cx="194" cy="340" r="3.2"/><circle cx="210" cy="340" r="3.2"/><circle cx="226" cy="340" r="3.2"/><circle cx="242" cy="340" r="3.2"/><circle cx="258" cy="340" r="3.2"/><circle cx="274" cy="340" r="3.2"/><circle cx="290" cy="340" r="3.2"/><circle cx="306" cy="340" r="3.2"/><circle cx="322" cy="340" r="3.2"/><circle cx="338" cy="340" r="3.2"/><circle cx="354" cy="340" r="3.2"/><circle cx="370" cy="340" r="3.2"/><circle cx="386" cy="340" r="3.2"/><circle cx="402" cy="340" r="3.2"/><circle cx="418" cy="340" r="3.2"/><circle cx="434" cy="340" r="3.2"/><circle cx="450" cy="340" r="3.2"/><circle cx="466" cy="340" r="3.2"/><circle cx="482" cy="340" r="3.2"/><circle cx="498" cy="340" r="3.2"/><circle cx="514" cy="340" r="3.2"/><circle cx="530" cy="340" r="3.2"/><circle cx="546" cy="340" r="3.2"/><circle cx="562" cy="340" r="3.2"/><circle cx="578" cy="340" r="3.2"/><circle cx="594" cy="340" r="3.2"/><circle cx="610" cy="340" r="3.2"/><circle cx="626" cy="340" r="3.2"/><circle cx="642" cy="340" r="3.2"/><circle cx="658" cy="340" r="3.2"/><circle cx="674" cy="340" r="3.2"/><circle cx="690" cy="340" r="3.2"/><circle cx="706" cy="340" r="3.2"/><circle cx="722" cy="340" r="3.2"/><circle cx="738" cy="340" r="3.2"/><circle cx="754" cy="340" r="3.2"/><circle cx="770" cy="340" r="3.2"/><circle cx="786" cy="340" r="3.2"/><circle cx="802" cy="340" r="3.2"/><circle cx="818" cy="340" r="3.2"/><circle cx="834" cy="340" r="3.2"/><circle cx="850" cy="340" r="3.2"/><circle cx="866" cy="340" r="3.2"/><circle cx="882" cy="340" r="3.2"/><circle cx="898" cy="340" r="3.2"/><circle cx="914" cy="340" r="3.2"/><circle cx="930" cy="340" r="3.2"/><circle cx="946" cy="340" r="3.2"/><circle cx="962" cy="340" r="3.2"/><circle cx="978" cy="340" r="3.2"/><circle cx="994" cy="340" r="3.2"/><circle cx="1010" cy="340" r="3.2"/></g><g fill="#9db9ff" fill-opacity="0.55"><circle cx="194" cy="400" r="3.2"/><circle cx="210" cy="400" r="3.2"/><circle cx="226" cy="400" r="3.2"/><circle cx="242" cy="400" r="3.2"/><circle cx="258" cy="400" r="3.2"/><circle cx="274" cy="400" r="3.2"/><circle cx="290" cy="400" r="3.2"/><circle cx="306" cy="400" r="3.2"/><circle cx="322" cy="400" r="3.2"/><circle cx="338" cy="400" r="3.2"/><circle cx="354" cy="400" r="3.2"/><circle cx="370" cy="400" r="3.2"/><circle cx="386" cy="400" r="3.2"/><circle cx="402" cy="400" r="3.2"/><circle cx="418" cy="400" r="3.2"/><circle cx="434" cy="400" r="3.2"/><circle cx="450" cy="400" r="3.2"/><circle cx="466" cy="400" r="3.2"/><circle cx="482" cy="400" r="3.2"/><circle cx="498" cy="400" r="3.2"/><circle cx="514" cy="400" r="3.2"/><circle cx="530" cy="400" r="3.2"/><circle cx="546" cy="400" r="3.2"/><circle cx="562" cy="400" r="3.2"/><circle cx="578" cy="400" r="3.2"/><circle cx="594" cy="400" r="3.2"/><circle cx="610" cy="400" r="3.2"/><circle cx="626" cy="400" r="3.2"/><circle cx="642" cy="400" r="3.2"/><circle cx="658" cy="400" r="3.2"/><circle cx="674" cy="400" r="3.2"/><circle cx="690" cy="400" r="3.2"/><circle cx="706" cy="400" r="3.2"/><circle cx="722" cy="400" r="3.2"/><circle cx="738" cy="400" r="3.2"/><circle cx="754" cy="400" r="3.2"/><circle cx="770" cy="400" r="3.2"/><circle cx="786" cy="400" r="3.2"/><circle cx="802" cy="400" r="3.2"/><circle cx="818" cy="400" r="3.2"/><circle cx="834" cy="400" r="3.2"/><circle cx="850" cy="400" r="3.2"/><circle cx="866" cy="400" r="3.2"/><circle cx="882" cy="400" r="3.2"/><circle cx="898" cy="400" r="3.2"/><circle cx="914" cy="400" r="3.2"/><circle cx="930" cy="400" r="3.2"/><circle cx="946" cy="400" r="3.2"/><circle cx="962" cy="400" r="3.2"/><circle cx="978" cy="400" r="3.2"/><circle cx="994" cy="400" r="3.2"/><circle cx="1010" cy="400" r="3.2"/></g><g fill="#9db9ff" fill-opacity="0.55"><circle cx="194" cy="460" r="3.2"/><circle cx="210" cy="460" r="3.2"/><circle cx="226" cy="460" r="3.2"/><circle cx="242" cy="460" r="3.2"/><circle cx="258" cy="460" r="3.2"/><circle cx="274" cy="460" r="3.2"/><circle cx="290" cy="460" r="3.2"/><circle cx="306" cy="460" r="3.2"/><circle cx="322" cy="460" r="3.2"/><circle cx="338" cy="460" r="3.2"/><circle cx="354" cy="460" r="3.2"/><circle cx="370" cy="460" r="3.2"/><circle cx="386" cy="460" r="3.2"/><circle cx="402" cy="460" r="3.2"/><circle cx="418" cy="460" r="3.2"/><circle cx="434" cy="460" r="3.2"/><circle cx="450" cy="460" r="3.2"/><circle cx="466" cy="460" r="3.2"/><circle cx="482" cy="460" r="3.2"/><circle cx="498" cy="460" r="3.2"/><circle cx="514" cy="460" r="3.2"/><circle cx="530" cy="460" r="3.2"/><circle cx="546" cy="460" r="3.2"/><circle cx="562" cy="460" r="3.2"/><circle cx="578" cy="460" r="3.2"/><circle cx="594" cy="460" r="3.2"/><circle cx="610" cy="460" r="3.2"/><circle cx="626" cy="460" r="3.2"/><circle cx="642" cy="460" r="3.2"/><circle cx="658" cy="460" r="3.2"/><circle cx="674" cy="460" r="3.2"/><circle cx="690" cy="460" r="3.2"/><circle cx="706" cy="460" r="3.2"/><circle cx="722" cy="460" r="3.2"/><circle cx="738" cy="460" r="3.2"/><circle cx="754" cy="460" r="3.2"/><circle cx="770" cy="460" r="3.2"/><circle cx="786" cy="460" r="3.2"/><circle cx="802" cy="460" r="3.2"/><circle cx="818" cy="460" r="3.2"/><circle cx="834" cy="460" r="3.2"/><circle cx="850" cy="460" r="3.2"/><circle cx="866" cy="460" r="3.2"/><circle cx="882" cy="460" r="3.2"/><circle cx="898" cy="460" r="3.2"/><circle cx="914" cy="460" r="3.2"/><circle cx="930" cy="460" r="3.2"/><circle cx="946" cy="460" r="3.2"/><circle cx="962" cy="460" r="3.2"/><circle cx="978" cy="460" r="3.2"/><circle cx="994" cy="460" r="3.2"/><circle cx="1010" cy="460" r="3.2"/></g><g fill="#9db9ff" fill-opacity="0.55"><circle cx="194" cy="520" r="3.2"/><circle cx="210" cy="520" r="3.2"/><circle cx="226" cy="520" r="3.2"/><circle cx="242" cy="520" r="3.2"/><circle cx="258" cy="520" r="3.2"/><circle cx="274" cy="520" r="3.2"/><circle cx="290" cy="520" r="3.2"/><circle cx="306" cy="520" r="3.2"/><circle cx="322" cy="520" r="3.2"/><circle cx="338" cy="520" r="3.2"/><circle cx="354" cy="520" r="3.2"/><circle cx="370" cy="520" r="3.2"/><circle cx="386" cy="520" r="3.2"/><circle cx="402" cy="520" r="3.2"/><circle cx="418" cy="520" r="3.2"/><circle cx="434" cy="520" r="3.2"/><circle cx="450" cy="520" r="3.2"/><circle cx="466" cy="520" r="3.2"/><circle cx="482" cy="520" r="3.2"/><circle cx="498" cy="520" r="3.2"/><circle cx="514" cy="520" r="3.2"/><circle cx="530" cy="520" r="3.2"/><circle cx="546" cy="520" r="3.2"/><circle cx="562" cy="520" r="3.2"/><circle cx="578" cy="520" r="3.2"/><circle cx="594" cy="520" r="3.2"/><circle cx="610" cy="520" r="3.2"/><circle cx="626" cy="520" r="3.2"/><circle cx="642" cy="520" r="3.2"/><circle cx="658" cy="520" r="3.2"/><circle cx="674" cy="520" r="3.2"/><circle cx="690" cy="520" r="3.2"/><circle cx="706" cy="520" r="3.2"/><circle cx="722" cy="520" r="3.2"/><circle cx="738" cy="520" r="3.2"/><circle cx="754" cy="520" r="3.2"/><circle cx="770" cy="520" r="3.2"/><circle cx="786" cy="520" r="3.2"/><circle cx="802" cy="520" r="3.2"/><circle cx="818" cy="520" r="3.2"/><circle cx="834" cy="520" r="3.2"/><circle cx="850" cy="520" r="3.2"/><circle cx="866" cy="520" r="3.2"/><circle cx="882" cy="520" r="3.2"/><circle cx="898" cy="520" r="3.2"/><circle cx="914" cy="520" r="3.2"/><circle cx="930" cy="520" r="3.2"/><circle cx="946" cy="520" r="3.2"/><circle cx="962" cy="520" r="3.2"/><circle cx="978" cy="520" r="3.2"/><circle cx="994" cy="520" r="3.2"/><circle cx="1010" cy="520" r="3.2"/></g>
<path d="M184 224V576" stroke="#ffb020" stroke-width="3"/>
<path d="M180 140L1020 140" stroke="#9db9ff" stroke-width="1.2" stroke-opacity="0.8" marker-start="url(#arrow)" marker-end="url(#arrow)" fill="none"/>
</svg>