<!-- Imagen conceptual / proyecto en desarrollo · generada por scripts/generate-art.mjs -->
<svg xmlns="http://www.w3.org/2000/svg" viewBox="0 0 1200 800" width="1200" height="800">
<defs>
<pattern id="minor" width="20" height="20" patternUnits="userSpaceOnUse"><path d="M20 0H0V20" fill="none" stroke="#9db9ff" stroke-opacity="0.07"/></pattern>
<pattern id="major" width="100" height="100" patternUnits="userSpaceOnUse"><rect width="100" height="100" fill="url(#minor)"/><path d="M100 0H0V100" fill="none" stroke="#9db9ff" stroke-opacity="0.14"/></pattern>
<marker id="arrow" viewBox="0 0 10 10" refX="5" refY="5" markerWidth="7" markerHeight="7" orient="auto-start-reverse"><path d="M0 0L10 5L0 10Z" fill="#9db9ff"/></marker>
</defs>
<rect width="1200" height="800" fill="#0a1c40"/>
<rect width="1200" height="800" fill="url(#major)"/>
<g fill="none" stroke="#9db9ff" stroke-opacity="0.55" stroke-width="1.5"><path d="M24 46V24H46"/><path d="M1176 46V24H1154"/><path d="M24 754V776H46"/><path d="M1176 754V776H1154"/></g>
<g fill="none" stroke="#e2eaff" stroke-width="2" stroke-opacity="0.85">
<rect x="120" y="230" width="960" height="400"/>
<path d="M90 230H1110" stroke-width="3"/>
<path d="M120 330H1080" stroke-opacity="0.45"/><path d="M120 430H1080" stroke-opacity="0.45"/><path d="M120 530H1080" stroke-opacity="0.45"/>
<path d="M40 630H1160" stroke-width="2.5"/>
<path d="M520 630V656H680V630" stroke-opacity="0.6"/>
<rect x="129" y="252" width="30" height="58" fill="none"/><rect x="177" y="252" width="30" height="58" fill="none"/><rect x="225" y="252" width="30" height="58" fill="none"/><rect x="273" y="252" width="30" height="58" fill="none"/><rect x="321" y="252" width="30" height="58" fill="#ffb020" fill-opacity="0.55" stroke="#ffb020"/><rect x="369" y="252" width="30" height="58" fill="#ffb020" fill-opacity="0.55" stroke="#ffb020"/><rect x="417" y="252" width="30" height="58" fill="none"/><rect x="465" y="252" width="30" height="58" fill="#ffb020" fill-opacity="0.55" stroke="#ffb020"/><rect x="513" y="252" width="30" height="58" fill="none"/><rect x="561" y="252" width="30" height="58" fill="none"/><rect x="609" y="252" width="30" height="58" fill="#ffb020" fill-opacity="0.55" stroke="#ffb020"/><rect x="657" y="252" width="30" height="58" fill="none"/><rect x="705" y="252" width="30" height="58" fill="none"/><rect x="753" y="252" width="30" height="58" fill="none"/><rect x="801" y="252" width="30" height="58" fill="none"/><rect x="849" y="252" width="30" height="58" fill="#ffb020" fill-opacity="0.55" stroke="#ffb020"/><rect x="897" y="252" width="30" height="58" fill="none"/><rect x="945" y="252" width="30" height="58" fill="none"/><rect x="993" y="252" width="30" height="58" fill="#ffb020" fill-opacity="0.55" stroke="#ffb020"/><rect x="1041" y="252" width="30" height="58" fill="none"/><rect x="129" y="352" width="30" height="58" fill="none"/><rect x="177" y="352" width="30" height="58" fill="#ffb020" fill-opacity="0.55" stroke="#ffb020"/><rect x="225" y="352" width="30" height="58" fill="#ffb020" fill-opacity="0.55" stroke="#ffb020"/><rect x="273" y="352" width="30" height="58" fill="none"/><rect x="321" y="352" width="30" height="58" fill="none"/><rect x="369" y="352" width="30" height="58" fill="none"/><rect x="417" y="352" width="30" height="58" fill="none"/><rect x="465" y="352" width="30" height="58" fill="none"/><rect x="513" y="352" width="30" height="58" fill="none"/><rect x="561" y="352" width="30" height="58" fill="#ffb020" fill-opacity="0.55" stroke="#ffb020"/><rect x="609" y="352" width="30" height="58" fill="#ffb020" fill-opacity="0.55" stroke="#ffb020"/><rect x="657" y="352" width="30" height="58" fill="#ffb020" fill-opacity="0.55" stroke="#ffb020"/><rect x="705" y="352" width="30" height="58" fill="#ffb020" fill-opacity="0.55" stroke="#ffb020"/><rect x="753" y="352" width="30" height="58" fill="none"/><rect x="801" y="352" width="30" height="58" fill="none"/><rect x="849" y="352" width="30" height="58" fill="#ffb020" fill-opacity="0.55" stroke="#ffb020"/><rect x="897" y="352" width="30" height="58" fill="none"/><rect x="945" y="352" width="30" height="58" fill="none"/><rect x="993" y="352" width="30" height="58" fill="#ffb020" fill-opacity="0.55" stroke="#ffb020"/><rect x="1041" y="352" width="30" height="58" fill="none"/><rect x="129" y="452" width="30" height="58" fill="none"/><rect x="177" y="452" width="30" height="58" fill="#ffb020" fill-opacity="0.55" stroke="#ffb020"/><rect x="225" y="452" width="30" height="58" fill="#ffb020" fill-opacity="0.55" stroke="#ffb020"/><rect x="273" y="452" width="30" height="58" fill="#ffb020" fill-opacity="0.55" stroke="#ffb020"/><rect x="321" y="452" width="30" height="58" fill="#ffb020" fill-opacity="0.55" stroke="#ffb020"/><rect x="369" y="452" width="30" height="58" fill="none"/><rect x="417" y="452" width="30" height="58" fill="none"/><rect x="465" y="452" width="30" height="58" fill="none"/><rect x="513" y="452" width="30" height="58" fill="none"/><rect x="561" y="452" width="30" height="58" fill="none"/><rect x="609" y="452" width="30" height="58" fill="none"/><rect x="657" y="452" width="30" height="58" fill="none"/><rect x="705" y="452" width="30" height="58" fill="none"/><rect x="753" y="452" width="30" height="58" fill="none"/><rect x="801" y="452" width="30" height="58" fill="#ffb020" fill-opacity="0.55" stroke="#ffb020"/><rect x="849" y="452" width="30" height="58" fill="none"/><rect x="897" y="452" width="30" height="58" fill="none"/><rect x="945" y="452" width="30" height="58" fill="#ffb020" fill-opacity="0.55" stroke="#ffb020"/><rect x="993" y="452" width="30" height="58" fill="none"/><rect x="1041" y="452" width="30" height="58" fill="none"/><rect x="129" y="552" width="30" height="58" fill="none"/><rect x="177" y="552" width="30" height="58" fill="#ffb020" fill-opacity="0.55" stroke="#ffb020"/><rect x="225" y="552" width="30" height="58" fill="none"/><rect x="273" y="552" width="30" height="58" fill="none"/><rect x="321" y="552" width="30" height="58" fill="none"/><rect x="369" y="552" width="30" height="58" fill="none"/><rect x="417" y="552" width="30" height="58" fill="none"/><rect x="465" y="552" width="30" height="58" fill="none"/><rect x="513" y="552" width="30" height="58" fill="#ffb020" fill-opacity="0.55" stroke="#ffb020"/><rect x="561" y="552" width="30" height="58" fill="none"/><rect x="609" y="552" width="30" height="58" fill="none"/><rect x="657" y="552" width="30" height="58" fill="none"/><rect x="705" y="552" width="30" height="58" fill="none"/><rect x="753" y="552" width="30" height="58" fill="none"/><rect x="801" y="552" width="30" height="58" fill="none"/><rect x="849" y="552" width="30" height="58" fill="none"/><rect x="897" y="552" width="30" height="58" fill="none"/><rect x="945" y="552" width="30" height="58" fill="#ffb020" fill-opacity="0.55" stroke="#ffb020"/><rect x="993" y="552" width="30" height="58" fill="#ffb020" fill-opacity="0.55" stroke="#ffb020"/><rect x="1041" y="552" width="30" height="58" fill="none"/>
<circle cx="60" cy="588" r="34"/><path d="M60 622V640"/><circle cx="1140" cy="588" r="34"/><path d="M1140 622V640"/>
</g>
<path d="M120 180L1080 180" stroke="#9db9ff" stroke-width="1.2" stroke-opacity="0.8" marker-start="url(#arrow)" marker-end="url(#arrow)" fill="none"/>
<path d="M1130 230L1130 630" stroke="#9db9ff" stroke-width="1.2" stroke-opacity="0.8" marker-start="url(#arrow)" marker-end="url(#arrow)" fill="none"/>
</svg>